<?xml version="1.0" encoding="UTF-8" standalone="no"?>
<!-- Created with Inkscape (http://www.inkscape.org/) -->

<svg
   width="210mm"
   height="297mm"
   viewBox="0 0 210 297"
   version="1.1"
   id="svg11984"
   inkscape:version="1.1 (c4e8f9e, 2021-05-24)"
   sodipodi:docname="enahost.svg"
   xmlns:inkscape="http://www.inkscape.org/namespaces/inkscape"
   xmlns:sodipodi="http://sodipodi.sourceforge.net/DTD/sodipodi-0.dtd"
   xmlns="http://www.w3.org/2000/svg"
   xmlns:svg="http://www.w3.org/2000/svg">
  <sodipodi:namedview
     id="namedview11986"
     pagecolor="#ffffff"
     bordercolor="#666666"
     borderopacity="1.0"
     inkscape:pageshadow="2"
     inkscape:pageopacity="0.0"
     inkscape:pagecheckerboard="0"
     inkscape:document-units="mm"
     showgrid="false"
     inkscape:zoom="0.57994529"
     inkscape:cx="913.01716"
     inkscape:cy="561.25984"
     inkscape:window-width="1312"
     inkscape:window-height="1003"
     inkscape:window-x="0"
     inkscape:window-y="25"
     inkscape:window-maximized="0"
     inkscape:current-layer="layer1" />
  <defs
     id="defs11981" />
  <g
     inkscape:label="Layer 1"
     inkscape:groupmode="layer"
     id="layer1">
    <g
       id="g11979"
       inkscape:export-filename="/Users/noske/Desktop/enahost.png"
       inkscape:export-xdpi="6.1121335"
       inkscape:export-ydpi="6.1121335"
       transform="translate(-211.58983,171.27004)">
      <g
         id="g11602"
         transform="matrix(1.1705636,0,0,1.1705636,-8.9964889,-150.54778)"
         style="fill:#ffffff">
        <path
           class="st0"
           d="m 146.6,106.1 c -10.1,0.9 -21.9,0.9 -33.1,0.9 -10,0 -15.9,-7 -16.1,-18.2 V 20 c 0.1,-11.3 6.2,-18.2 16.1,-18.2 11.2,0 23,0 33.1,0.9 l -0.4,10.5 h -30.6 c -4.4,0 -5.8,3 -5.8,10 V 46 H 142 v 10.8 h -32.2 v 28.7 c 0,7.1 1.4,10.2 5.8,10.2 h 30.6 z"
           id="path11588"
           style="fill:#ffffff" />
        <path
           class="st0"
           d="m 220.4,101.5 c 0,3.5 -1.5,5.3 -4.4,5.3 h -12.8 c -2.5,0 -4.3,-1.2 -5,-4.3 L 176.6,28.2 c -1.1,-4 -2.6,-9.6 -4,-13.8 h -1.4 v 13.8 l 0.1,78.6 H 159.1 V 7.3 c 0,-3.5 1.7,-5.3 4.6,-5.3 H 176 c 2.6,0 4.6,1.2 5.3,4.3 l 20.8,72.5 c 1.2,4.3 3,10 4.4,15.2 h 1.8 c -0.1,-5.5 0,-10.6 0,-16 V 2 h 12.1 z"
           id="path11590"
           style="fill:#ffffff" />
        <path
           class="st0"
           d="m 250.2,74 -7.1,32.8 H 230.6 L 254.5,5.6 C 255.1,3.3 256.9,2 258.9,2 h 12.2 c 1.9,0 3.7,1.4 4.3,3.6 l 23.9,101.3 H 286.8 L 279.7,74 Z m 18,-53.2 c -0.6,-2.7 -1.4,-5.8 -1.8,-8.5 h -2.9 l -1.8,8.5 -9,41.7 h 24.5 z"
           id="path11592"
           style="fill:#ffffff" />
        <path
           class="st0"
           d="M 366.6,106.9 H 354.4 V 56.5 h -32.6 v 50.3 H 309.6 V 2 h 12.2 v 43 h 32.6 V 2 h 12.2 z"
           id="path11594"
           style="fill:#ffffff" />
        <path
           class="st0"
           d="m 442.9,54.4 c 0,41 -8.2,54.4 -31.1,54.4 -23,0 -31.2,-13.4 -31.2,-54.4 0,-41 8.2,-54.4 31.2,-54.4 22.9,0 31.1,13.4 31.1,54.4 z m -49.5,0 c 0,32.1 4.4,42.4 18.4,42.4 13.9,0 18.3,-10.3 18.3,-42.4 0,-32.1 -4.4,-42.4 -18.3,-42.4 -13.9,0 -18.4,10.3 -18.4,42.4 z"
           id="path11596"
           style="fill:#ffffff" />
        <path
           class="st0"
           d="m 503.2,3.2 -0.8,9.7 c -6.4,-0.5 -15,-0.8 -22.2,-0.8 -10.3,0 -14,0.5 -14,16 0,11.5 2.8,14.9 9,17.2 l 15.1,5.3 c 12.1,4 15.7,13.2 15.7,29.5 0,24.2 -7.6,28.6 -26.6,28.6 -4.9,0 -13.6,-0.3 -24.4,-2.9 l 0.8,-9.9 c 14.6,0.6 18.3,0.9 23.9,0.8 11,0 14,-2.4 14,-16.9 0,-12.2 -2.8,-15 -8.7,-17.3 L 469.2,57 C 458,53.2 453.9,43.8 453.9,27.8 c 0,-24.5 7.9,-27.7 25.7,-27.7 7.2,0.2 15.5,0.8 23.6,3.1 z"
           id="path11598"
           style="fill:#ffffff" />
        <path
           class="st0"
           d="m 550.2,13.8 v 93 h -12.3 v -93 h -24 V 2 h 60.3 v 11.9 h -24 z"
           id="path11600"
           style="fill:#ffffff" />
      </g>
      <g
         id="g11606"
         transform="matrix(1.1705636,0,0,1.1705636,-8.9964889,-150.54778)"
         style="fill:#cccccc">
        <path
           class="st1"
           d="m 68.6,80.2 v 23.6 c 0,2.2 -2.5,3.6 -4.5,2.4 l -26.8,-17 c -1.8,-1.1 -1.8,-3.6 0,-4.8 L 56,72.6 c 1,-0.6 2.2,-0.6 3.1,0 l 8.1,5.2 c 0.9,0.5 1.4,1.4 1.4,2.4 z"
           id="path11604"
           style="fill:#cccccc" />
      </g>
      <path
         class="st0"
         d="m -9.1135453,-61.233777 v 23.762441 c 0,2.57524 2.926409,4.214029 5.2675362,2.809352 L 50.702255,-69.310666 c 0.936451,-0.585282 1.521732,-1.638789 1.521732,-2.809353 V -95.88246 c 0,-2.692296 -2.926409,-4.21403 -5.267536,-2.809353 L -7.5918126,-64.04313 c -0.9364509,0.702338 -1.5217327,1.755845 -1.5217327,2.809353 z"
         id="path11608"
         style="fill:#ffffff;stroke-width:1.17056" />
      <path
         class="st2"
         d="m 9.9666414,-105.24697 v 18.143737 c 0,2.57524 2.9264086,4.214029 5.2675366,2.809353 l 54.548263,-34.64868 c 0.936451,-0.58528 1.521733,-1.63879 1.521733,-2.80936 v -23.52832 c 0,-2.6923 -2.926409,-4.21403 -5.267536,-2.80936 l -49.86601,31.60522 c -3.862859,2.57524 -6.2039866,6.67221 -6.2039866,11.23741 z"
         id="path11610"
         style="fill:#808080;stroke-width:1.17056" />
    </g>
  </g>
</svg>
