<?xml version="1.0" encoding="UTF-8" standalone="no"?>
<!-- Created with Inkscape (http://www.inkscape.org/) -->

<svg
   width="121"
   height="23"
   version="1.1"
   viewBox="0 0 32.015 6.0854"
   id="svg679"
   sodipodi:docname="am_dark.svg"
   inkscape:version="1.2.2 (b0a84865, 2022-12-01)"
   xmlns:inkscape="http://www.inkscape.org/namespaces/inkscape"
   xmlns:sodipodi="http://sodipodi.sourceforge.net/DTD/sodipodi-0.dtd"
   xmlns="http://www.w3.org/2000/svg"
   xmlns:svg="http://www.w3.org/2000/svg">
  <defs
     id="defs683" />
  <sodipodi:namedview
     id="namedview681"
     pagecolor="#ffffff"
     bordercolor="#000000"
     borderopacity="0.25"
     inkscape:showpageshadow="2"
     inkscape:pageopacity="0.0"
     inkscape:pagecheckerboard="0"
     inkscape:deskcolor="#d1d1d1"
     showgrid="false"
     inkscape:zoom="9.9917355"
     inkscape:cx="48.790323"
     inkscape:cy="11.509512"
     inkscape:window-width="1309"
     inkscape:window-height="456"
     inkscape:window-x="0"
     inkscape:window-y="38"
     inkscape:window-maximized="0"
     inkscape:current-layer="svg679" />
  <path
     d="M 6.3362668,0.17662048 4.9054245,2.6549144 3.4745823,0.17662048 0.48046414,5.362436 h 0.00379 L 0.12153953,5.990693 H 0.98507391 L 1.3477806,5.362436 h 1.9938701 l 0.00984,-0.016213 0.4224047,-0.7316358 h -1.994364 l 0.7021695,-1.216183 h -0.00377 L 3.4745567,1.6722001 5.1733527,4.6145876 H 4.6399969 l -0.4217874,0.7316358 -0.00505,0.016213 h 1.3968079 l 0.3627232,0.628257 H 6.836225 l -1.4959068,-2.5910147 7.614e-4,-0.00129 h -0.0015 L 6.336206,1.6721842 8.4709463,5.3624222 h 7.078e-4 l 0.3627355,0.628257 H 9.6979231 L 8.2012344,3.3983881 h -0.0049 z"
     fill="#333333"
     fill-rule="evenodd"
     id="path671"
     style="stroke-width:0.041154" />
  <g
     aria-label="AGILITY MANAGER"
     id="text675"
     style="font-size:2.55348px;line-height:1.25;fill:#333333;stroke-width:0.0638381">
    <path
       d="M 10.979938,4.5956082 H 10.747572 L 10.459028,3.9700056 H 9.6878776 L 9.4018878,4.5956082 H 9.1593072 L 10.042811,2.65241 h 0.06639 z M 10.359443,3.7478528 10.076007,3.1171433 9.7900168,3.7478528 Z"
       style="font-family:'Heiti TC'"
       id="path1112" />
    <path
       d="m 13.140182,3.6814624 q -0.0077,0.4545194 -0.265562,0.7073139 -0.255348,0.2527945 -0.674119,0.2527945 -0.480054,0 -0.766044,-0.2936502 -0.28599,-0.2962036 -0.28599,-0.691993 0,-0.3957894 0.28599,-0.6843327 0.28599,-0.2910967 0.737956,-0.2910967 0.245134,0 0.454519,0.091925 0.211939,0.089372 0.413664,0.2757758 l -0.16853,0.1608693 Q 12.716304,3.0584133 12.535007,2.9792554 12.35371,2.897544 12.162199,2.897544 q -0.191511,0 -0.380469,0.1021392 -0.188957,0.1021392 -0.296203,0.2757759 -0.107246,0.1736366 -0.107246,0.3753615 0,0.314078 0.23492,0.5489982 0.237473,0.2323667 0.592407,0.2323667 0.263009,0 0.45452,-0.1429949 0.191511,-0.1455484 0.23492,-0.3957894 H 12.312854 V 3.6814624 Z"
       style="font-family:'Heiti TC'"
       id="path1114" />
    <path
       d="M 13.640663,4.5956082 H 13.421064 V 2.7264609 h 0.219599 z"
       style="font-family:'Heiti TC'"
       id="path1116" />
    <path
       d="M 14.950598,4.5956082 H 14.023685 V 2.7264609 h 0.222153 v 1.6572084 h 0.70476 z"
       style="font-family:'Heiti TC'"
       id="path1118" />
    <path
       d="M 15.397456,4.5956082 H 15.177857 V 2.7264609 h 0.219599 z"
       style="font-family:'Heiti TC'"
       id="path1120" />
    <path
       d="m 16.641001,2.9409532 h -0.408557 v 1.654655 h -0.222153 v -1.654655 h -0.41111 V 2.7264609 h 1.04182 z"
       style="font-family:'Heiti TC'"
       id="path1122" />
    <path
       d="m 18.129676,2.7264609 -0.597514,0.9805363 v 0.888611 H 17.317669 V 3.7069972 L 16.709941,2.7264609 h 0.255348 l 0.457073,0.7379557 0.451966,-0.7379557 z"
       style="font-family:'Heiti TC'"
       id="path1124" />
    <path
       d="m 21.040637,4.5956082 h -0.217046 l -0.173637,-1.271633 -0.628156,1.271633 h -0.06639 L 19.319591,3.3137613 19.145954,4.5956082 h -0.211938 l 0.265562,-1.8691473 h 0.05362 l 0.735402,1.4835718 0.730295,-1.4835718 h 0.05362 z"
       style="font-family:'Heiti TC'"
       id="path1126" />
    <path
       d="M 23.014473,4.5956082 H 22.782106 L 22.493563,3.9700056 h -0.771151 l -0.28599,0.6256026 h -0.24258 L 22.077346,2.65241 h 0.06639 z M 22.393977,3.7478528 22.110541,3.1171433 21.824551,3.7478528 Z"
       style="font-family:'Heiti TC'"
       id="path1128" />
    <path
       d="m 24.732965,4.5956082 h -0.06639 L 23.48176,3.2397103 V 4.5956082 H 23.257053 V 2.7264609 h 0.06639 l 1.192475,1.3737722 V 2.7264609 h 0.217046 z"
       style="font-family:'Heiti TC'"
       id="path1130" />
    <path
       d="M 26.793622,4.5956082 H 26.561255 L 26.272712,3.9700056 h -0.771151 l -0.28599,0.6256026 h -0.24258 L 25.856495,2.65241 h 0.06639 z M 26.173126,3.7478528 25.88969,3.1171433 25.6037,3.7478528 Z"
       style="font-family:'Heiti TC'"
       id="path1132" />
    <path
       d="m 28.953866,3.6814624 q -0.0077,0.4545194 -0.265562,0.7073139 -0.255348,0.2527945 -0.674119,0.2527945 -0.480054,0 -0.766044,-0.2936502 -0.28599,-0.2962036 -0.28599,-0.691993 0,-0.3957894 0.28599,-0.6843327 0.28599,-0.2910967 0.737956,-0.2910967 0.245134,0 0.454519,0.091925 0.211939,0.089372 0.413664,0.2757758 L 28.68575,3.2090686 Q 28.529988,3.0584133 28.348691,2.9792554 28.167394,2.897544 27.975883,2.897544 q -0.191511,0 -0.380469,0.1021392 -0.188957,0.1021392 -0.296203,0.2757759 -0.107246,0.1736366 -0.107246,0.3753615 0,0.314078 0.23492,0.5489982 0.237473,0.2323667 0.592407,0.2323667 0.263009,0 0.45452,-0.1429949 0.191511,-0.1455484 0.23492,-0.3957894 H 28.126538 V 3.6814624 Z"
       style="font-family:'Heiti TC'"
       id="path1134" />
    <path
       d="m 30.350618,2.9435067 h -0.868183 v 0.5362308 h 0.860522 v 0.2144923 h -0.860522 v 0.6843326 h 0.860522 V 4.5956082 H 29.262835 V 2.7264609 h 1.087783 z"
       style="font-family:'Heiti TC'"
       id="path1136" />
    <path
       d="M 31.869937,4.5956082 H 31.594161 L 30.935363,3.7427459 h -0.0766 V 4.5956082 H 30.63916 V 2.7264609 h 0.383022 q 0.306417,0 0.421324,0.028088 0.114906,0.025535 0.199171,0.089372 0.08427,0.063837 0.132781,0.1659761 0.04852,0.099586 0.04852,0.2221528 0,0.2323667 -0.158315,0.3728081 -0.158316,0.1378879 -0.457073,0.1378879 z M 30.858759,3.5282536 h 0.298757 q 0.224706,0.00255 0.331952,-0.066391 0.107247,-0.071497 0.107247,-0.2247062 0,-0.1557623 -0.104693,-0.2247063 -0.104693,-0.071497 -0.326845,-0.071497 h -0.306418 z"
       style="font-family:'Heiti TC'"
       id="path1138" />
  </g>
</svg>
