<?xml version="1.0" encoding="UTF-8" standalone="no"?>
<!-- Created with Inkscape (http://www.inkscape.org/) -->

<svg
   width="121"
   height="23"
   version="1.1"
   viewBox="0 0 32.015 6.0854"
   id="svg935"
   sodipodi:docname="am_light.svg"
   inkscape:version="1.2.2 (b0a84865, 2022-12-01)"
   xmlns:inkscape="http://www.inkscape.org/namespaces/inkscape"
   xmlns:sodipodi="http://sodipodi.sourceforge.net/DTD/sodipodi-0.dtd"
   xmlns="http://www.w3.org/2000/svg"
   xmlns:svg="http://www.w3.org/2000/svg">
  <defs
     id="defs939" />
  <sodipodi:namedview
     id="namedview937"
     pagecolor="#ffffff"
     bordercolor="#000000"
     borderopacity="0.25"
     inkscape:showpageshadow="2"
     inkscape:pageopacity="0.0"
     inkscape:pagecheckerboard="0"
     inkscape:deskcolor="#d1d1d1"
     showgrid="false"
     inkscape:zoom="9.9917355"
     inkscape:cx="48.790323"
     inkscape:cy="11.509512"
     inkscape:window-width="1309"
     inkscape:window-height="456"
     inkscape:window-x="227"
     inkscape:window-y="307"
     inkscape:window-maximized="0"
     inkscape:current-layer="svg935" />
  <path
     d="M 6.2714,0.236 4.8509,2.6964 3.4304,0.236 0.4579,5.3845 h 0.004 L 0.10181,6.00821 h 0.8573 L 1.31919,5.3845 h 1.9795 l 0.01,-0.01609 0.41936,-0.72636 h -1.9799 l 0.69709,-1.2074 h -0.004 l 0.98941,-1.7137 1.6865,2.9211 H 4.58767 L 4.16896,5.36841 4.16396,5.3845 h 1.3867 l 0.3601,0.62371 h 0.85731 l -1.4851,-2.5723 7.6e-4,-0.0013 h -0.001 l 0.98943,-1.7137 2.1193,3.6636 h 7e-4 l 0.36011,0.62372 h 0.85731 l -1.4858,-2.5736 h -0.005 z"
     fill="#ffffff"
     fill-rule="evenodd"
     id="path927" />
  <g
     aria-label="AGILITY MANAGER"
     id="text931"
     style="font-size:2.535px;line-height:1.25;fill:#ffffff;stroke-width:0.063375">
    <path
       d="M 11.110576,4.6168013 H 10.87989 L 10.593435,3.9957263 H 9.8278655 l -0.28392,0.621075 H 9.3031204 L 10.18023,2.6876663 h 0.06591 z m -0.616006,-0.84162 -0.281385,-0.626145 -0.2839195,0.626145 z"
       style="font-family:'Heiti TC'"
       id="path1061" />
    <path
       d="m 13.255185,3.7092713 q -0.0076,0.45123 -0.26364,0.702195 -0.2535,0.250965 -0.66924,0.250965 -0.47658,0 -0.7605,-0.291525 -0.28392,-0.29406 -0.28392,-0.686985 0,-0.392925 0.28392,-0.67938 0.28392,-0.28899 0.732615,-0.28899 0.24336,0 0.45123,0.09126 0.210405,0.088725 0.41067,0.27378 l -0.16731,0.159705 q -0.154635,-0.149565 -0.33462,-0.22815 -0.179985,-0.08112 -0.37011,-0.08112 -0.190125,0 -0.377715,0.1014 -0.18759,0.1014 -0.29406,0.27378 -0.10647,0.17238 -0.10647,0.372645 0,0.311805 0.23322,0.545025 0.235755,0.230685 0.58812,0.230685 0.261105,0 0.45123,-0.14196 0.190125,-0.144495 0.23322,-0.392925 h -0.57798 v -0.210405 z"
       style="font-family:'Heiti TC'"
       id="path1063" />
    <path
       d="m 13.752044,4.6168013 h -0.21801 v -1.85562 h 0.21801 z"
       style="font-family:'Heiti TC'"
       id="path1065" />
    <path
       d="m 15.052499,4.6168013 h -0.920205 v -1.85562 h 0.220545 v 1.645215 h 0.69966 z"
       style="font-family:'Heiti TC'"
       id="path1067" />
    <path
       d="m 15.496124,4.6168013 h -0.21801 v -1.85562 h 0.21801 z"
       style="font-family:'Heiti TC'"
       id="path1069" />
    <path
       d="m 16.730668,2.9741213 h -0.4056 v 1.64268 h -0.220545 v -1.64268 h -0.408135 v -0.21294 h 1.03428 z"
       style="font-family:'Heiti TC'"
       id="path1071" />
    <path
       d="m 18.20857,2.7611813 -0.59319,0.97344 v 0.88218 h -0.21294 v -0.88218 l -0.60333,-0.97344 h 0.2535 l 0.453765,0.732615 0.448695,-0.732615 z"
       style="font-family:'Heiti TC'"
       id="path1073" />
    <path
       d="m 21.098462,4.6168013 h -0.215475 l -0.17238,-1.26243 -0.62361,1.26243 h -0.06591 l -0.631215,-1.27257 -0.17238,1.27257 h -0.210405 l 0.26364,-1.85562 h 0.05324 l 0.73008,1.472835 0.72501,-1.472835 h 0.05324 z"
       style="font-family:'Heiti TC'"
       id="path1075" />
    <path
       d="M 23.058015,4.6168013 H 22.82733 l -0.286455,-0.621075 h -0.76557 l -0.28392,0.621075 H 21.25056 l 0.87711,-1.929135 h 0.06591 z m -0.616005,-0.84162 -0.281385,-0.626145 -0.28392,0.626145 z"
       style="font-family:'Heiti TC'"
       id="path1077" />
    <path
       d="m 24.764069,4.6168013 h -0.06591 l -1.17624,-1.346085 v 1.346085 h -0.22308 v -1.85562 h 0.06591 l 1.183845,1.36383 v -1.36383 h 0.215475 z"
       style="font-family:'Heiti TC'"
       id="path1079" />
    <path
       d="m 26.809813,4.6168013 h -0.230685 l -0.286455,-0.621075 h -0.76557 l -0.28392,0.621075 h -0.240825 l 0.87711,-1.929135 h 0.06591 z m -0.616005,-0.84162 -0.281385,-0.626145 -0.28392,0.626145 z"
       style="font-family:'Heiti TC'"
       id="path1081" />
    <path
       d="m 28.954424,3.7092713 q -0.0076,0.45123 -0.26364,0.702195 -0.2535,0.250965 -0.66924,0.250965 -0.47658,0 -0.7605,-0.291525 -0.28392,-0.29406 -0.28392,-0.686985 0,-0.392925 0.28392,-0.67938 0.28392,-0.28899 0.732615,-0.28899 0.24336,0 0.45123,0.09126 0.210405,0.088725 0.41067,0.27378 l -0.16731,0.159705 q -0.154635,-0.149565 -0.33462,-0.22815 -0.179985,-0.08112 -0.37011,-0.08112 -0.190125,0 -0.377715,0.1014 -0.18759,0.1014 -0.29406,0.27378 -0.10647,0.17238 -0.10647,0.372645 0,0.311805 0.23322,0.545025 0.235755,0.230685 0.58812,0.230685 0.261105,0 0.45123,-0.14196 0.190125,-0.144495 0.23322,-0.392925 h -0.57798 v -0.210405 z"
       style="font-family:'Heiti TC'"
       id="path1083" />
    <path
       d="m 30.341066,2.9766563 h -0.8619 v 0.53235 h 0.854295 v 0.21294 h -0.854295 v 0.67938 h 0.854295 v 0.215475 h -1.072305 v -1.85562 h 1.07991 z"
       style="font-family:'Heiti TC'"
       id="path1085" />
    <path
       d="m 31.84939,4.6168013 h -0.27378 l -0.65403,-0.84669 h -0.07605 v 0.84669 h -0.21801 v -1.85562 h 0.38025 q 0.3042,0 0.418275,0.027885 0.114075,0.02535 0.19773,0.088725 0.08366,0.063375 0.13182,0.164775 0.04817,0.098865 0.04817,0.220545 0,0.230685 -0.15717,0.37011 -0.15717,0.13689 -0.453765,0.13689 z m -1.00386,-1.05963 h 0.296595 q 0.22308,0.00254 0.32955,-0.06591 0.10647,-0.07098 0.10647,-0.22308 0,-0.154635 -0.103935,-0.22308 -0.103935,-0.07098 -0.32448,-0.07098 h -0.3042 z"
       style="font-family:'Heiti TC'"
       id="path1087" />
  </g>
</svg>
