<?xml version="1.0" encoding="UTF-8"?>
<!-- Created with Inkscape (http://www.inkscape.org/) -->
<svg width="37" height="23" version="1.1" viewBox="0 0 9.7896 6.0854" xmlns="http://www.w3.org/2000/svg"><path d="m6.2714 0.23658-1.4205 2.4604-1.4205-2.4604-2.9725 5.1485h4e-3l-0.36009 0.62371h0.8573l0.36008-0.62371h1.9795l0.01-0.01609 0.41936-0.72636h-1.9799l0.69709-1.2074h-4e-3l0.98941-1.7137 1.6865 2.9211h-0.52948l-0.41871 0.72636-5e-3 0.01609h1.3867l0.3601 0.62371h0.85731l-1.4851-2.5723 7.6e-4 -0.0013h-1e-3l0.98943-1.7137 2.1193 3.6636h7e-4l0.36011 0.62372h0.85731l-1.4858-2.5736h-5e-3z" fill="#fff" fill-rule="evenodd"/></svg>
